<svg id="visual" viewBox="0 0 900 600" width="900" height="600" 
xmlns="http://www.w3.org/2000/svg" xmlns:xlink="http://www.w3.org/1999/xlink" 
version="1.1"><g transform="translate(418.2576829562185 293.9085319891751)">
<path d="M82.6 -145.4C115.2 -124.3 155.5 -118.6 193 -97C230.5 -75.3 265.2 
-37.7 273.9 5C282.6 47.7 265.1 95.3 232.6 125.6C200.1 156 152.6 168.9 111.3 
182.1C70 195.2 35 208.6 -3 213.8C-41 219 -82 216 -122 202.1C-162 188.2 -200.9 
163.3 -210.3 127.8C-219.6 92.3 -199.3 46.2 -181.7 10.2C-164.1 -25.8 -149.2 
-51.7 -132.2 -74C-115.3 -96.4 -96.4 -115.3 -74 -142.4C-51.7 -169.5 -25.8 
-204.7 -0.4 -204C25 -203.3 50 -166.6 82.6 -145.4" 
fill="none" stroke="#f27405" stroke-width="6"></path></g></svg>