<svg id="visual" viewBox="0 0 900 100" width="900" height="100" xmlns="http://www.w3.org/2000/svg" xmlns:xlink="http://www.w3.org/1999/xlink" version="1.1"><path d="M0 70L47 66L95 77L142 51L189 74L237 52L284 76L332 68L379 77L426 78L474 65L521 74L568 65L616 69L663 53L711 65L758 64L805 82L853 71L900 61L900 101L853 101L805 101L758 101L711 101L663 101L616 101L568 101L521 101L474 101L426 101L379 101L332 101L284 101L237 101L189 101L142 101L95 101L47 101L0 101Z" fill="#014040"></path><path d="M0 71L47 74L95 72L142 79L189 58L237 77L284 60L332 80L379 67L426 62L474 70L521 72L568 61L616 78L663 82L711 70L758 71L805 84L853 62L900 78L900 101L853 101L805 101L758 101L711 101L663 101L616 101L568 101L521 101L474 101L426 101L379 101L332 101L284 101L237 101L189 101L142 101L95 101L47 101L0 101Z" fill="#004848"></path><path d="M0 75L47 82L95 89L142 71L189 75L237 72L284 71L332 84L379 82L426 80L474 84L521 80L568 88L616 71L663 72L711 86L758 75L805 75L853 74L900 71L900 101L853 101L805 101L758 101L711 101L663 101L616 101L568 101L521 101L474 101L426 101L379 101L332 101L284 101L237 101L189 101L142 101L95 101L47 101L0 101Z" fill="#00514f"></path><path d="M0 78L47 79L95 77L142 91L189 84L237 78L284 88L332 80L379 80L426 92L474 87L521 74L568 87L616 93L663 87L711 78L758 90L805 82L853 91L900 81L900 101L853 101L805 101L758 101L711 101L663 101L616 101L568 101L521 101L474 101L426 101L379 101L332 101L284 101L237 101L189 101L142 101L95 101L47 101L0 101Z" fill="#015a57"></path><path d="M0 96L47 83L95 90L142 95L189 98L237 86L284 91L332 92L379 93L426 97L474 95L521 84L568 88L616 98L663 91L711 99L758 95L805 88L853 99L900 93L900 101L853 101L805 101L758 101L711 101L663 101L616 101L568 101L521 101L474 101L426 101L379 101L332 101L284 101L237 101L189 101L142 101L95 101L47 101L0 101Z" fill="#02635e"></path></svg>