<svg id="visual" viewBox="0 0 900 100" width="900" height="100" xmlns="http://www.w3.org/2000/svg" xmlns:xlink="http://www.w3.org/1999/xlink" version="1.1"><path d="M0 28L47 32L95 21L142 47L189 24L237 46L284 22L332 30L379 21L426 20L474 33L521 24L568 33L616 29L663 45L711 33L758 34L805 16L853 27L900 37L900 0L853 0L805 0L758 0L711 0L663 0L616 0L568 0L521 0L474 0L426 0L379 0L332 0L284 0L237 0L189 0L142 0L95 0L47 0L0 0Z" fill="#014040"></path><path d="M0 27L47 24L95 26L142 19L189 40L237 21L284 38L332 18L379 31L426 36L474 28L521 26L568 37L616 20L663 16L711 28L758 27L805 14L853 36L900 20L900 0L853 0L805 0L758 0L711 0L663 0L616 0L568 0L521 0L474 0L426 0L379 0L332 0L284 0L237 0L189 0L142 0L95 0L47 0L0 0Z" fill="#004848"></path><path d="M0 23L47 16L95 9L142 27L189 23L237 26L284 27L332 14L379 16L426 18L474 14L521 18L568 10L616 27L663 26L711 12L758 23L805 23L853 24L900 27L900 0L853 0L805 0L758 0L711 0L663 0L616 0L568 0L521 0L474 0L426 0L379 0L332 0L284 0L237 0L189 0L142 0L95 0L47 0L0 0Z" fill="#00514f"></path><path d="M0 20L47 19L95 21L142 7L189 14L237 20L284 10L332 18L379 18L426 6L474 11L521 24L568 11L616 5L663 11L711 20L758 8L805 16L853 7L900 17L900 0L853 0L805 0L758 0L711 0L663 0L616 0L568 0L521 0L474 0L426 0L379 0L332 0L284 0L237 0L189 0L142 0L95 0L47 0L0 0Z" fill="#015a57"></path><path d="M0 2L47 15L95 8L142 3L189 0L237 12L284 7L332 6L379 5L426 1L474 3L521 14L568 10L616 0L663 7L711 0L758 3L805 10L853 0L900 5L900 0L853 0L805 0L758 0L711 0L663 0L616 0L568 0L521 0L474 0L426 0L379 0L332 0L284 0L237 0L189 0L142 0L95 0L47 0L0 0Z" fill="#02635e"></path></svg>